<svg xmlns="http://www.w3.org/2000/svg" xmlns:xlink="http://www.w3.org/1999/xlink" id="svg" version="1.1" width="400" height="400" viewBox="0, 0, 400,400"><g id="svgg"><path id="path0" d="M222.880 105.280 C 222.081 106.079,222.199 141.200,223.000 141.200 C 223.330 141.200,223.600 141.380,223.600 141.600 C 223.600 141.861,230.133 142.000,242.400 142.000 C 254.667 142.000,261.200 141.861,261.200 141.600 C 261.200 141.380,261.470 141.200,261.800 141.200 C 262.793 141.200,262.696 106.113,261.700 105.357 C 261.176 104.959,259.068 104.822,253.300 104.813 L 245.600 104.800 245.600 108.320 C 245.600 112.512,245.395 112.800,242.400 112.800 C 239.405 112.800,239.200 112.512,239.200 108.320 L 239.200 104.800 231.280 104.800 C 225.653 104.800,223.221 104.939,222.880 105.280 M155.200 106.677 C 154.143 106.878,150.800 110.190,150.800 111.036 C 150.800 111.310,150.665 111.593,150.500 111.667 C 150.095 111.847,146.800 116.771,146.800 117.196 C 146.800 117.382,146.664 117.593,146.497 117.667 C 146.192 117.801,135.137 134.229,134.840 134.990 C 134.752 135.216,134.567 135.490,134.429 135.600 C 134.197 135.786,112.974 167.668,111.474 170.086 C 108.511 174.861,115.019 179.749,120.400 176.790 C 121.637 176.110,131.049 176.004,132.459 176.655 C 132.976 176.894,134.120 177.315,135.000 177.591 C 136.765 178.144,139.288 179.234,139.600 179.579 C 139.876 179.884,141.274 180.750,142.000 181.066 C 143.975 181.926,148.870 187.782,150.472 191.200 C 152.194 194.875,152.443 195.654,152.830 198.582 C 154.251 209.316,151.701 208.400,180.158 208.400 C 208.925 208.400,207.636 208.799,208.139 199.740 C 208.251 197.728,208.521 195.748,208.738 195.340 C 208.955 194.933,209.394 193.970,209.713 193.200 C 211.151 189.730,211.414 189.200,211.698 189.200 C 211.864 189.200,212.000 189.012,212.000 188.783 C 212.000 186.348,219.842 179.949,225.600 177.684 C 237.979 172.816,253.390 179.411,259.051 192.000 C 260.597 195.438,261.124 197.722,261.469 202.471 C 261.961 209.239,270.980 210.480,272.132 203.938 C 272.459 202.083,271.452 193.467,270.808 192.600 C 270.644 192.380,270.391 191.700,270.245 191.089 C 270.099 190.478,269.534 189.005,268.990 187.815 C 268.445 186.625,268.000 185.460,268.000 185.226 C 268.000 184.992,267.865 184.798,267.700 184.795 C 267.535 184.793,267.056 184.073,266.636 183.195 C 266.215 182.318,265.759 181.600,265.622 181.600 C 265.485 181.600,265.060 181.070,264.677 180.423 C 263.490 178.413,256.319 171.600,255.390 171.600 C 255.210 171.600,254.779 171.357,254.431 171.059 C 253.674 170.411,251.200 169.102,249.000 168.185 C 248.120 167.818,247.040 167.366,246.600 167.180 C 246.160 166.994,245.440 166.784,245.000 166.715 C 244.282 166.602,244.200 166.280,244.200 163.595 L 244.200 160.600 252.259 160.400 C 261.113 160.180,261.276 160.134,262.603 157.474 C 263.432 155.812,263.402 150.527,262.554 148.827 C 261.041 145.795,263.789 145.984,222.869 146.098 L 186.338 146.200 184.969 147.694 C 183.610 149.177,183.600 149.216,183.600 153.014 C 183.600 159.532,184.226 160.128,191.360 160.400 L 196.600 160.600 196.706 171.700 L 196.813 182.800 177.506 182.790 L 158.200 182.779 156.910 180.890 C 155.025 178.127,150.747 173.902,147.665 171.757 C 147.483 171.631,148.360 167.203,148.765 166.200 C 149.405 164.619,149.973 162.569,150.237 160.891 C 150.384 159.951,150.661 159.086,150.853 158.968 C 151.044 158.849,151.200 158.324,151.200 157.800 C 151.200 157.276,151.356 156.751,151.547 156.633 C 151.738 156.515,152.017 155.498,152.166 154.374 C 152.315 153.250,152.586 152.031,152.769 151.665 C 153.218 150.768,153.878 148.508,154.190 146.800 C 154.331 146.030,154.591 145.040,154.768 144.600 C 155.290 143.299,155.916 141.100,156.190 139.600 C 156.331 138.830,156.591 137.840,156.768 137.400 C 157.290 136.099,157.916 133.900,158.190 132.400 C 158.331 131.630,158.591 130.640,158.768 130.200 C 159.290 128.899,159.916 126.700,160.190 125.200 C 160.331 124.430,160.596 123.440,160.778 123.000 C 160.960 122.560,161.327 121.390,161.593 120.400 C 162.455 117.197,161.849 117.412,170.371 117.291 C 178.203 117.180,179.046 117.024,180.600 115.390 C 182.687 113.195,182.351 109.997,179.779 107.579 L 178.737 106.600 167.468 106.543 C 161.271 106.512,155.750 106.572,155.200 106.677 M121.429 181.953 C 121.309 182.148,120.218 182.430,119.005 182.582 C 117.792 182.734,116.800 182.982,116.800 183.134 C 116.800 183.287,116.125 183.733,115.300 184.126 C 112.784 185.324,112.238 185.720,109.979 187.979 C 107.788 190.170,107.450 190.630,106.150 193.200 C 105.760 193.970,105.341 194.690,105.218 194.800 C 103.350 196.469,103.334 210.169,105.198 212.000 C 105.310 212.110,105.665 212.740,105.988 213.400 C 107.967 217.445,113.162 222.139,117.300 223.623 C 120.255 224.683,118.549 224.800,100.200 224.800 L 81.600 224.800 81.600 226.600 L 81.600 228.400 195.557 228.400 C 299.102 228.400,309.537 228.342,309.757 227.767 C 309.891 227.419,310.000 226.609,310.000 225.967 L 310.000 224.800 275.600 224.800 C 256.680 224.800,241.201 224.665,241.203 224.500 C 241.206 224.179,243.111 223.200,243.731 223.200 C 244.875 223.200,251.401 217.896,252.135 216.369 C 252.286 216.056,252.765 215.260,253.200 214.600 C 253.635 213.940,254.099 213.130,254.232 212.800 C 254.756 211.494,255.328 210.154,255.754 209.239 C 256.627 207.361,256.305 198.447,255.291 196.425 C 254.801 195.449,254.400 194.474,254.400 194.260 C 254.400 193.504,251.803 189.778,250.012 187.966 C 247.353 185.274,243.215 182.896,240.555 182.532 C 239.578 182.398,238.682 182.133,238.565 181.944 C 238.288 181.495,230.912 181.495,230.635 181.944 C 230.518 182.133,229.639 182.396,228.683 182.527 C 223.582 183.226,214.400 191.730,214.400 195.754 C 214.400 196.084,214.220 196.464,214.000 196.600 C 213.780 196.736,213.600 197.366,213.600 198.000 C 213.600 198.634,213.420 199.264,213.200 199.400 C 212.979 199.536,212.800 201.330,212.800 203.400 C 212.800 205.470,212.979 207.264,213.200 207.400 C 213.420 207.536,213.600 208.166,213.600 208.800 C 213.600 209.434,213.760 210.051,213.955 210.172 C 214.150 210.293,214.428 211.023,214.573 211.796 C 214.718 212.568,214.987 213.200,215.171 213.200 C 215.356 213.200,215.621 213.515,215.760 213.900 C 216.488 215.913,221.215 221.200,222.287 221.200 C 222.569 221.200,222.800 221.351,222.800 221.535 C 222.800 221.897,226.874 224.000,227.575 224.000 C 227.809 224.000,228.000 224.180,228.000 224.400 C 228.000 224.664,211.733 224.800,180.000 224.800 C 153.600 224.800,132.000 224.664,132.000 224.498 C 132.000 224.331,132.585 223.960,133.300 223.672 C 134.015 223.384,134.870 222.979,135.200 222.772 C 135.530 222.564,136.062 222.273,136.382 222.123 C 139.324 220.750,145.200 213.849,145.200 211.768 C 145.200 211.455,145.369 211.200,145.575 211.200 C 145.782 211.200,146.061 210.345,146.196 209.300 C 146.331 208.255,146.612 207.087,146.820 206.705 C 147.294 205.839,147.325 200.000,146.856 200.000 C 146.666 200.000,146.406 199.114,146.278 198.031 C 146.150 196.947,145.875 195.732,145.667 195.331 C 145.459 194.929,144.958 193.925,144.553 193.100 C 144.149 192.275,143.679 191.600,143.509 191.600 C 143.339 191.600,143.200 191.359,143.200 191.064 C 143.200 190.385,138.444 185.600,137.769 185.600 C 137.493 185.600,137.207 185.447,137.133 185.261 C 136.858 184.559,133.058 182.765,131.352 182.531 C 130.376 182.398,129.482 182.133,129.365 181.944 C 129.084 181.489,121.710 181.498,121.429 181.953 M128.800 192.800 C 128.800 193.020,129.115 193.205,129.500 193.211 C 134.052 193.283,138.008 202.806,135.504 207.662 C 132.521 213.446,123.115 216.789,120.000 213.172 C 119.890 213.044,119.226 212.606,118.524 212.198 C 117.823 211.790,116.927 210.859,116.533 210.128 C 116.140 209.398,115.679 208.800,115.509 208.800 C 115.339 208.800,115.200 208.451,115.200 208.024 C 115.200 207.597,115.020 207.136,114.800 207.000 C 112.566 205.619,115.676 195.735,118.801 194.283 C 119.130 194.130,119.670 193.852,120.000 193.666 C 120.330 193.479,120.960 193.128,121.400 192.887 C 122.416 192.328,128.800 192.254,128.800 192.800 M238.829 193.112 C 241.265 194.378,242.795 195.392,242.797 195.742 C 242.799 195.930,243.250 196.619,243.800 197.273 C 244.350 197.927,244.800 198.808,244.800 199.231 C 244.800 199.654,244.980 200.000,245.200 200.000 C 245.435 200.000,245.600 201.400,245.600 203.400 C 245.600 205.270,245.443 206.800,245.250 206.800 C 245.058 206.800,244.801 207.297,244.679 207.905 C 244.435 209.127,241.044 212.800,240.160 212.800 C 239.852 212.800,239.600 212.980,239.600 213.200 C 239.600 213.420,239.251 213.600,238.824 213.600 C 238.397 213.600,237.936 213.780,237.800 214.000 C 237.664 214.220,236.224 214.400,234.600 214.400 C 232.976 214.400,231.536 214.220,231.400 214.000 C 231.264 213.780,230.848 213.596,230.476 213.590 C 229.516 213.576,226.000 210.910,226.000 210.196 C 226.000 209.868,225.863 209.600,225.696 209.600 C 223.668 209.600,223.198 199.934,225.109 197.513 C 226.827 195.334,229.327 193.200,230.160 193.200 C 230.486 193.200,230.864 193.020,231.000 192.800 C 231.441 192.087,237.305 192.321,238.829 193.112 M154.069 270.700 C 152.050 278.785,150.399 285.535,150.399 285.700 C 150.401 286.221,155.073 286.037,155.493 285.500 C 155.708 285.225,156.098 284.010,156.359 282.800 C 156.621 281.590,156.997 279.970,157.195 279.200 C 157.394 278.430,157.846 276.630,158.200 275.200 C 158.554 273.770,159.004 271.970,159.200 271.200 C 159.396 270.430,159.846 268.630,160.200 267.200 C 160.554 265.770,161.004 263.970,161.200 263.200 C 161.800 260.840,162.771 256.617,162.786 256.300 C 162.794 256.135,161.661 256.000,160.269 256.000 L 157.739 256.000 154.069 270.700 M181.261 256.700 C 181.058 257.085,180.766 258.165,180.611 259.100 L 180.330 260.800 182.751 260.800 C 185.470 260.800,185.711 260.583,186.189 257.700 L 186.470 256.000 184.049 256.000 C 182.150 256.000,181.549 256.151,181.261 256.700 M79.299 258.700 C 79.080 259.305,78.589 261.150,78.207 262.800 C 77.825 264.450,77.361 266.340,77.176 267.000 C 76.991 267.660,76.556 269.370,76.210 270.800 C 75.864 272.230,75.411 274.030,75.203 274.800 C 74.013 279.202,73.069 283.186,72.904 284.500 L 72.716 286.000 78.658 286.000 C 92.004 285.998,97.955 282.548,100.732 273.200 C 104.294 261.213,101.121 257.600,87.035 257.600 L 79.697 257.600 79.299 258.700 M263.600 257.789 C 263.600 258.073,268.772 271.259,269.301 272.323 C 269.889 273.507,269.886 275.488,269.291 277.452 C 268.388 280.434,267.290 285.403,267.468 285.700 C 267.774 286.212,272.270 286.041,272.701 285.500 C 272.920 285.225,273.199 284.460,273.322 283.800 C 273.444 283.140,273.836 281.430,274.194 280.000 C 274.551 278.570,274.992 276.711,275.174 275.869 C 275.356 275.026,276.036 273.766,276.686 273.069 C 277.336 272.371,280.694 268.605,284.149 264.700 L 290.431 257.600 287.475 257.600 L 284.520 257.600 282.366 260.100 C 281.181 261.475,280.029 262.796,279.806 263.035 C 279.583 263.274,278.410 264.667,277.200 266.130 C 274.153 269.815,274.270 269.861,272.266 264.200 C 271.721 262.660,270.963 260.545,270.583 259.500 L 269.891 257.600 266.746 257.600 C 265.016 257.600,263.600 257.685,263.600 257.789 M93.446 262.905 C 95.807 264.155,96.793 269.464,95.269 272.712 C 92.079 279.507,90.750 280.579,84.980 281.012 C 81.017 281.309,78.851 280.888,79.440 279.935 C 79.597 279.681,79.977 278.377,80.285 277.037 C 80.592 275.696,81.004 273.970,81.200 273.200 C 81.974 270.159,82.859 266.531,83.152 265.200 C 83.858 261.990,84.024 261.890,88.338 262.077 C 90.875 262.187,92.627 262.471,93.446 262.905 M126.400 263.952 C 125.850 264.121,124.808 264.404,124.084 264.583 C 116.696 266.401,112.758 281.833,118.782 285.360 C 123.806 288.302,135.200 283.643,135.200 278.646 C 135.200 277.442,130.440 278.516,129.259 279.987 C 126.270 283.706,121.037 282.828,121.100 278.619 C 121.141 275.931,120.937 276.000,128.799 276.000 L 135.951 276.000 136.269 274.100 C 137.605 266.105,133.417 261.798,126.400 263.952 M307.485 264.037 C 300.957 265.574,296.800 271.513,296.800 279.302 C 296.800 289.825,314.469 288.430,318.370 277.600 C 322.112 267.214,317.642 261.646,307.485 264.037 M179.377 264.437 C 179.229 264.677,178.668 266.702,178.130 268.937 C 177.593 271.172,176.725 274.710,176.201 276.800 C 173.642 287.007,173.574 286.000,176.824 286.000 C 178.131 286.000,179.200 285.936,179.200 285.859 C 179.200 285.781,180.370 281.056,181.799 275.359 C 183.229 269.661,184.399 264.775,184.399 264.500 C 184.400 263.863,179.768 263.805,179.377 264.437 M200.929 266.100 C 201.055 267.255,201.441 270.450,201.787 273.200 C 202.134 275.950,202.594 279.793,202.810 281.740 C 203.303 286.190,203.147 286.001,206.324 285.993 L 209.000 285.985 215.700 275.233 C 223.460 262.779,222.968 264.000,220.233 264.000 C 217.892 264.000,216.800 264.272,216.800 264.854 C 216.800 265.057,215.722 266.935,214.403 269.027 C 213.085 271.119,211.436 273.859,210.738 275.116 C 210.039 276.372,209.180 277.918,208.827 278.552 C 207.698 280.578,207.408 279.961,207.156 275.000 C 206.601 264.068,206.581 264.015,203.050 264.006 L 200.701 264.000 200.929 266.100 M338.226 267.100 C 337.845 268.805,337.378 270.650,337.190 271.200 C 337.001 271.750,336.551 273.550,336.190 275.200 C 335.829 276.850,335.369 278.613,335.167 279.119 C 334.154 281.656,335.204 284.773,337.376 285.674 C 340.145 286.822,345.887 285.550,347.254 283.486 C 347.742 282.748,348.600 283.480,348.600 284.635 C 348.600 285.952,351.806 286.650,352.664 285.519 C 353.393 284.557,358.102 264.742,357.697 264.337 C 357.487 264.127,356.358 264.010,355.189 264.077 L 353.064 264.200 352.323 267.000 C 351.916 268.540,351.416 270.430,351.212 271.200 C 351.009 271.970,350.524 273.858,350.136 275.396 C 348.608 281.444,340.593 284.608,340.721 279.113 C 340.753 277.762,342.463 270.335,343.662 266.343 C 344.264 264.339,343.912 264.000,341.236 264.000 L 338.919 264.000 338.226 267.100 M130.891 268.940 C 132.968 271.526,131.599 272.800,126.744 272.800 C 122.504 272.800,122.076 272.587,122.943 270.911 C 124.560 267.784,129.065 266.667,130.891 268.940 M312.901 268.794 C 314.672 270.186,314.640 274.111,312.828 277.838 C 310.063 283.525,302.400 283.572,302.400 277.902 C 302.400 270.673,308.530 265.356,312.901 268.794 M235.270 273.100 C 235.073 273.485,234.808 274.475,234.681 275.300 L 234.450 276.800 239.178 276.800 L 243.905 276.800 244.353 275.023 C 244.599 274.045,244.800 273.055,244.800 272.823 C 244.800 272.012,235.691 272.277,235.270 273.100 " stroke="none" fill="#060606" fill-rule="evenodd"/><path id="path1" d="M0.000 200.000 L 0.000 400.000 200.000 400.000 L 400.000 400.000 400.000 200.000 L 400.000 0.000 200.000 0.000 L 0.000 0.000 0.000 200.000 M239.600 108.400 L 239.800 112.200 241.568 112.326 C 245.127 112.581,245.200 112.497,245.200 108.192 L 245.200 104.400 253.300 104.413 C 259.401 104.422,261.573 104.557,262.100 104.957 C 262.748 105.449,262.800 106.810,262.797 123.444 L 262.794 141.400 261.717 141.900 C 260.905 142.277,256.152 142.400,242.400 142.400 C 228.648 142.400,223.895 142.277,223.083 141.900 L 222.006 141.400 222.003 123.444 C 222.000 106.812,222.052 105.449,222.700 104.952 C 223.241 104.537,225.214 104.437,231.400 104.508 L 239.400 104.600 239.600 108.400 M178.521 106.370 C 180.668 107.186,182.400 109.610,182.400 111.800 C 182.400 113.782,180.547 116.800,179.330 116.800 C 179.039 116.800,178.800 116.980,178.800 117.200 C 178.800 117.453,175.876 117.600,170.827 117.600 C 162.897 117.600,162.853 117.605,162.613 118.500 C 161.698 121.917,161.472 122.689,161.178 123.400 C 160.996 123.840,160.731 124.830,160.590 125.600 C 160.272 127.341,159.614 129.578,159.151 130.495 C 158.958 130.877,158.800 131.531,158.800 131.949 C 158.800 132.817,157.706 136.655,157.163 137.695 C 156.963 138.077,156.800 138.731,156.800 139.149 C 156.800 140.017,155.706 143.855,155.163 144.895 C 154.963 145.277,154.800 145.931,154.800 146.349 C 154.800 147.217,153.706 151.055,153.163 152.095 C 152.963 152.477,152.800 153.131,152.800 153.549 C 152.800 154.308,151.808 157.892,151.180 159.400 C 150.997 159.840,150.731 160.830,150.590 161.600 C 150.316 163.099,149.690 165.299,149.168 166.600 C 148.013 169.476,147.987 171.378,149.091 172.200 C 151.209 173.777,155.537 178.156,157.054 180.256 L 158.600 182.396 177.500 182.398 L 196.400 182.400 196.400 171.848 L 196.400 161.297 191.353 161.129 L 186.306 160.961 184.753 159.296 L 183.200 157.631 183.200 153.377 C 183.200 148.456,183.694 147.353,186.507 145.994 C 188.721 144.924,257.184 144.733,259.713 145.790 C 262.586 146.990,263.600 148.879,263.600 153.030 C 263.600 160.224,262.757 160.800,252.220 160.800 L 244.363 160.800 244.482 163.500 C 244.596 166.114,244.635 166.204,245.700 166.327 C 246.305 166.396,246.800 166.621,246.800 166.827 C 246.800 167.032,247.250 167.200,247.800 167.200 C 248.350 167.200,248.800 167.380,248.800 167.600 C 248.800 167.820,249.030 168.000,249.311 168.000 C 250.011 168.000,254.313 170.252,255.873 171.435 C 256.574 171.966,257.255 172.400,257.388 172.400 C 258.379 172.400,266.800 181.660,266.800 182.750 C 266.800 182.961,266.940 183.193,267.110 183.267 C 267.694 183.517,270.415 189.354,270.659 190.878 C 270.793 191.715,271.040 192.400,271.209 192.400 C 271.973 192.400,273.013 202.513,272.444 204.412 C 270.452 211.059,261.676 209.949,261.073 202.974 C 260.799 199.797,260.085 195.587,259.653 194.600 C 258.451 191.851,256.951 188.924,256.512 188.471 C 256.230 188.181,256.000 187.816,256.000 187.662 C 256.000 186.509,247.789 179.600,246.419 179.600 C 246.189 179.600,246.000 179.464,246.000 179.298 C 246.000 178.931,243.486 178.010,241.696 177.722 C 240.979 177.606,240.294 177.351,240.173 177.156 C 239.865 176.659,229.309 176.700,229.000 177.200 C 228.864 177.420,228.234 177.600,227.600 177.600 C 226.966 177.600,226.345 177.766,226.219 177.969 C 226.094 178.172,225.413 178.465,224.706 178.621 C 223.999 178.776,222.745 179.330,221.919 179.851 C 221.092 180.373,220.324 180.800,220.211 180.800 C 219.317 180.800,213.259 187.064,212.204 189.080 C 211.766 189.916,211.301 190.690,211.171 190.800 C 211.041 190.910,210.597 191.990,210.185 193.200 C 209.772 194.410,209.292 195.599,209.117 195.841 C 208.943 196.084,208.693 197.974,208.562 200.041 C 208.295 204.274,207.809 205.670,206.002 207.400 L 204.748 208.600 180.874 208.704 C 152.061 208.829,153.807 209.234,152.814 202.200 C 152.412 199.346,152.101 197.604,151.336 193.900 C 151.211 193.295,150.969 192.800,150.798 192.800 C 150.627 192.800,150.363 192.308,150.213 191.708 C 149.626 189.370,143.098 181.600,141.721 181.600 C 141.434 181.600,141.200 181.451,141.200 181.268 C 141.200 180.855,136.752 178.645,134.600 177.989 C 133.720 177.721,132.687 177.344,132.305 177.151 C 131.417 176.702,121.085 176.690,120.580 177.137 C 119.704 177.913,115.803 178.429,114.386 177.956 C 108.990 176.154,109.177 171.008,114.902 163.800 C 116.002 162.414,118.400 158.701,118.400 158.382 C 118.400 158.172,118.539 158.000,118.709 158.000 C 118.879 158.000,119.357 157.370,119.772 156.600 C 120.187 155.830,120.657 155.200,120.816 155.200 C 120.976 155.200,121.212 154.885,121.342 154.500 C 121.557 153.859,122.118 152.900,122.910 151.822 C 124.421 149.763,126.400 146.697,126.400 146.416 C 126.400 146.224,126.535 146.007,126.700 145.933 C 127.124 145.745,130.400 140.819,130.400 140.371 C 130.400 140.167,130.539 140.000,130.709 140.000 C 130.879 140.000,131.357 139.370,131.772 138.600 C 132.187 137.830,132.657 137.200,132.816 137.200 C 132.976 137.200,133.212 136.885,133.342 136.500 C 133.624 135.660,134.348 134.531,135.300 133.446 C 135.685 133.008,136.000 132.516,136.000 132.353 C 136.000 132.190,136.225 131.812,136.500 131.512 C 137.230 130.715,137.989 129.501,138.258 128.700 C 138.388 128.315,138.611 128.000,138.756 128.000 C 138.900 128.000,139.357 127.370,139.772 126.600 C 140.187 125.830,140.678 125.200,140.863 125.200 C 141.048 125.200,141.200 125.041,141.200 124.846 C 141.200 124.519,144.286 119.656,144.782 119.200 C 145.178 118.836,146.019 117.412,146.258 116.700 C 146.388 116.315,146.624 116.000,146.784 116.000 C 146.943 116.000,147.413 115.370,147.828 114.600 C 148.243 113.830,148.700 113.200,148.844 113.200 C 148.989 113.200,149.212 112.885,149.342 112.500 C 149.582 111.786,150.424 110.361,150.819 110.000 C 150.940 109.890,151.429 109.240,151.907 108.556 C 153.600 106.130,154.233 106.019,166.474 106.009 C 172.565 106.004,177.986 106.166,178.521 106.370 M129.371 181.553 C 129.491 181.748,130.582 182.030,131.795 182.182 C 133.008 182.334,134.000 182.625,134.000 182.829 C 134.000 183.033,134.360 183.200,134.800 183.200 C 135.240 183.200,135.600 183.359,135.600 183.553 C 135.600 183.748,135.915 184.012,136.300 184.142 C 138.542 184.895,143.905 190.258,144.658 192.500 C 144.788 192.885,145.052 193.200,145.247 193.200 C 145.441 193.200,145.600 193.539,145.600 193.954 C 145.600 194.369,145.869 195.224,146.198 195.854 C 146.526 196.484,146.796 197.574,146.798 198.276 C 146.799 198.978,146.980 199.664,147.200 199.800 C 147.420 199.936,147.600 201.567,147.600 203.424 C 147.600 205.408,147.435 206.800,147.200 206.800 C 146.980 206.800,146.799 207.475,146.798 208.300 C 146.796 209.125,146.526 210.316,146.198 210.946 C 145.869 211.576,145.600 212.255,145.600 212.456 C 145.600 214.863,139.661 220.959,134.966 223.370 L 133.000 224.379 179.700 224.390 C 205.385 224.395,226.400 224.314,226.400 224.210 C 226.400 224.105,225.635 223.652,224.700 223.203 C 223.765 222.754,222.658 222.164,222.240 221.893 C 221.082 221.142,216.400 216.435,216.400 216.021 C 216.400 215.821,216.168 215.419,215.885 215.129 C 215.200 214.426,214.000 211.837,214.000 211.063 C 214.000 210.724,213.820 210.336,213.600 210.200 C 213.380 210.064,213.200 209.423,213.200 208.776 C 213.200 208.129,213.020 207.600,212.800 207.600 C 212.559 207.600,212.400 205.941,212.400 203.424 C 212.400 201.071,212.575 199.139,212.800 199.000 C 213.020 198.864,213.200 198.223,213.200 197.576 C 213.200 196.929,213.357 196.400,213.549 196.400 C 213.741 196.400,214.013 195.680,214.154 194.800 C 214.294 193.920,214.566 193.200,214.758 193.200 C 214.950 193.200,215.212 192.885,215.342 192.500 C 216.070 190.332,221.532 184.870,223.700 184.142 C 224.085 184.012,224.400 183.748,224.400 183.553 C 224.400 183.359,224.760 183.200,225.200 183.200 C 225.640 183.200,226.000 183.037,226.000 182.838 C 226.000 182.638,226.900 182.351,228.000 182.200 C 229.099 182.049,230.100 181.762,230.223 181.563 C 230.509 181.101,238.800 181.083,238.800 181.544 C 238.800 181.734,239.686 181.994,240.769 182.122 C 242.542 182.332,244.260 182.981,244.800 183.646 C 244.910 183.781,245.405 184.019,245.900 184.173 C 246.395 184.328,246.800 184.622,246.800 184.827 C 246.800 185.032,247.020 185.200,247.289 185.200 C 247.943 185.200,252.800 190.038,252.800 190.688 C 252.800 190.970,252.935 191.201,253.100 191.203 C 253.558 191.206,254.800 193.565,254.800 194.432 C 254.800 194.855,254.951 195.200,255.136 195.200 C 256.527 195.200,257.176 205.937,256.013 209.700 C 255.690 210.745,255.285 211.600,255.113 211.600 C 254.941 211.600,254.800 211.972,254.800 212.427 C 254.800 212.881,254.350 213.843,253.800 214.564 C 253.250 215.286,252.800 216.045,252.800 216.251 C 252.800 217.101,246.209 222.800,245.227 222.800 C 244.992 222.800,244.800 222.957,244.800 223.150 C 244.800 223.343,244.215 223.657,243.500 223.850 C 242.715 224.061,255.658 224.279,276.200 224.400 L 310.200 224.600 310.331 225.748 C 310.403 226.380,310.355 227.325,310.224 227.848 L 309.985 228.800 195.592 228.800 L 81.200 228.800 81.200 226.604 L 81.200 224.408 99.100 224.298 C 109.505 224.233,116.623 224.045,116.100 223.847 C 115.605 223.660,115.200 223.369,115.200 223.200 C 115.200 223.031,114.885 222.788,114.500 222.658 C 112.258 221.905,106.895 216.542,106.142 214.300 C 106.012 213.915,105.769 213.600,105.600 213.600 C 105.285 213.600,105.138 213.234,104.078 209.800 C 103.318 207.337,103.235 199.767,103.941 197.200 C 104.555 194.968,105.312 193.200,105.654 193.200 C 105.797 193.200,106.026 192.750,106.164 192.200 C 106.302 191.650,106.592 191.200,106.808 191.200 C 107.023 191.200,107.200 190.980,107.200 190.711 C 107.200 190.057,112.038 185.200,112.688 185.200 C 112.970 185.200,113.200 185.032,113.200 184.827 C 113.200 184.622,113.605 184.328,114.100 184.173 C 114.595 184.019,115.090 183.781,115.200 183.646 C 115.709 183.020,117.377 182.360,119.020 182.135 C 120.011 181.999,120.918 181.733,121.035 181.544 C 121.316 181.089,129.090 181.098,129.371 181.553 M122.000 193.200 C 122.000 193.420,121.662 193.600,121.249 193.600 C 120.836 193.600,120.274 193.870,120.000 194.200 C 119.726 194.530,119.285 194.800,119.021 194.800 C 118.497 194.800,117.078 196.239,116.655 197.200 C 116.510 197.530,116.046 198.340,115.625 199.000 C 115.060 199.884,114.851 200.964,114.829 203.105 C 114.803 205.738,114.973 206.470,116.063 208.400 C 116.249 208.730,116.569 209.384,116.773 209.853 C 117.181 210.790,120.510 213.200,121.396 213.200 C 121.702 213.200,122.064 213.380,122.200 213.600 C 122.336 213.820,123.787 214.000,125.424 214.000 C 127.141 214.000,128.400 213.831,128.400 213.600 C 128.400 213.380,128.760 213.200,129.200 213.200 C 129.640 213.200,130.000 213.020,130.000 212.800 C 130.000 212.580,130.249 212.400,130.553 212.400 C 131.272 212.400,134.400 209.272,134.400 208.553 C 134.400 208.249,134.580 208.000,134.800 208.000 C 135.020 208.000,135.200 207.651,135.200 207.224 C 135.200 206.797,135.380 206.336,135.600 206.200 C 137.266 205.170,135.433 198.571,132.730 195.869 C 130.211 193.350,122.000 191.308,122.000 193.200 M231.200 193.195 C 230.870 193.386,230.330 193.647,230.000 193.776 C 228.580 194.328,226.968 195.525,226.564 196.328 C 226.325 196.805,225.839 197.515,225.484 197.907 C 223.753 199.820,223.967 207.094,225.819 209.296 C 226.359 209.937,226.800 210.599,226.800 210.768 C 226.800 210.936,227.430 211.413,228.200 211.828 C 228.970 212.243,229.600 212.721,229.600 212.891 C 229.600 213.061,230.050 213.200,230.600 213.200 C 231.150 213.200,231.600 213.380,231.600 213.600 C 231.600 214.534,237.094 214.043,239.084 212.932 C 241.458 211.607,243.885 209.199,244.229 207.827 C 244.372 207.258,244.649 206.694,244.844 206.573 C 245.308 206.286,245.308 200.514,244.844 200.227 C 244.649 200.106,244.375 199.553,244.235 198.998 C 243.806 197.290,241.935 195.298,239.681 194.153 C 238.867 193.739,238.140 193.265,238.067 193.100 C 237.882 192.685,231.938 192.767,231.200 193.195 M163.466 255.827 C 163.598 256.172,163.525 256.847,163.304 257.327 C 163.083 257.807,162.590 259.640,162.207 261.400 C 161.825 263.160,161.375 264.960,161.207 265.400 C 161.040 265.840,160.590 267.640,160.207 269.400 C 159.825 271.160,159.375 272.960,159.207 273.400 C 159.040 273.840,158.590 275.640,158.207 277.400 C 157.825 279.160,157.365 280.960,157.185 281.400 C 157.005 281.840,156.739 282.920,156.593 283.800 C 156.207 286.136,155.835 286.400,152.938 286.400 C 149.523 286.400,149.550 286.501,151.201 280.000 C 151.396 279.230,151.846 277.430,152.200 276.000 C 152.554 274.570,153.004 272.770,153.200 272.000 C 153.396 271.230,153.846 269.430,154.200 268.000 C 154.554 266.570,155.004 264.770,155.200 264.000 C 155.396 263.230,155.814 261.520,156.129 260.200 C 156.444 258.880,156.814 257.485,156.951 257.100 C 157.088 256.715,157.284 256.130,157.387 255.800 C 157.665 254.912,163.124 254.937,163.466 255.827 M186.800 256.740 C 186.800 260.555,185.901 261.585,182.567 261.594 C 179.541 261.601,179.607 261.682,180.172 258.676 C 180.823 255.210,180.834 255.200,184.024 255.200 L 186.800 255.200 186.800 256.740 M97.000 257.808 C 103.032 260.337,104.108 267.986,99.714 277.108 C 98.530 279.565,95.187 283.119,93.191 284.044 C 92.426 284.398,91.350 284.894,90.800 285.145 C 88.282 286.298,73.969 287.002,72.463 286.047 C 71.989 285.747,74.752 273.187,76.831 266.200 C 77.027 265.540,77.540 263.523,77.970 261.718 C 79.284 256.205,78.408 256.645,87.546 256.909 C 93.598 257.085,95.767 257.291,97.000 257.808 M270.171 257.429 C 270.517 257.774,270.800 258.368,270.800 258.749 C 270.800 259.129,270.944 259.611,271.119 259.820 C 271.295 260.029,271.760 261.190,272.153 262.400 C 272.546 263.610,273.029 264.960,273.226 265.400 C 273.422 265.840,273.776 266.730,274.012 267.378 L 274.440 268.557 275.320 267.525 C 275.804 266.958,277.460 264.989,279.000 263.149 C 284.360 256.746,284.287 256.800,287.565 256.800 C 290.726 256.800,291.551 257.426,290.151 258.762 C 289.738 259.157,288.860 260.097,288.200 260.851 C 283.904 265.759,281.380 268.627,281.203 268.800 C 278.835 271.122,275.954 274.967,275.767 276.055 C 275.639 276.795,275.393 277.760,275.219 278.200 C 275.045 278.640,274.578 280.440,274.182 282.200 C 273.238 286.391,273.229 286.400,269.938 286.400 C 266.432 286.400,266.446 286.444,267.970 280.322 C 269.222 275.289,269.459 273.260,268.872 272.580 C 268.692 272.371,268.038 270.850,267.420 269.200 C 266.801 267.550,266.066 265.660,265.785 265.000 C 265.505 264.340,264.959 262.900,264.572 261.800 C 264.185 260.700,263.718 259.629,263.534 259.420 C 263.135 258.966,263.091 257.442,263.467 257.067 C 264.045 256.489,269.528 256.785,270.171 257.429 M84.039 264.060 C 83.798 264.753,83.600 265.655,83.600 266.065 C 83.600 266.475,83.440 267.123,83.245 267.505 C 83.050 267.887,82.580 269.640,82.201 271.400 C 81.822 273.160,81.365 274.960,81.185 275.400 C 81.005 275.840,80.744 276.888,80.605 277.728 C 80.467 278.569,80.254 279.514,80.134 279.828 C 79.769 280.780,87.304 280.607,89.492 279.614 C 94.265 277.448,97.269 266.919,93.958 263.963 C 92.701 262.840,92.516 262.800,88.567 262.800 L 84.478 262.800 84.039 264.060 M133.251 263.767 C 136.778 265.250,138.326 270.951,136.439 275.507 L 135.903 276.800 128.751 276.800 L 121.600 276.800 121.600 278.571 C 121.600 282.854,127.817 282.958,129.327 278.700 C 129.673 277.722,135.600 277.643,135.600 278.616 C 135.600 285.871,120.270 289.805,116.101 283.619 C 113.748 280.127,115.950 270.554,120.022 266.579 C 123.030 263.641,129.621 262.241,133.251 263.767 M316.067 263.952 C 321.119 266.143,321.834 271.695,318.074 279.539 C 312.883 290.367,294.778 288.965,296.202 277.846 C 297.626 266.723,307.131 260.076,316.067 263.952 M184.800 264.838 C 184.800 265.520,184.524 267.095,184.186 268.338 C 183.399 271.241,182.999 272.794,182.216 276.000 C 181.867 277.430,181.417 279.230,181.216 280.000 C 181.015 280.770,180.631 282.300,180.363 283.400 C 179.676 286.222,179.454 286.401,176.651 286.394 C 173.985 286.387,172.914 285.986,173.412 285.181 C 173.584 284.902,173.977 283.577,174.285 282.237 C 174.592 280.896,175.004 279.170,175.200 278.400 C 175.396 277.630,175.846 275.830,176.200 274.400 C 176.554 272.970,177.006 271.170,177.205 270.400 C 177.403 269.630,177.779 268.010,178.041 266.800 C 178.703 263.735,178.872 263.600,182.049 263.600 L 184.800 263.600 184.800 264.838 M206.901 266.000 C 207.067 267.210,207.433 270.540,207.715 273.400 L 208.228 278.600 209.294 276.552 C 209.881 275.426,211.449 272.776,212.780 270.664 C 214.111 268.551,215.200 266.716,215.200 266.585 C 215.200 266.454,215.671 265.729,216.247 264.973 C 217.435 263.416,222.800 262.781,222.800 264.198 C 222.800 264.748,216.862 274.555,211.477 282.900 L 209.218 286.400 206.509 286.394 C 202.744 286.385,202.789 286.443,202.139 280.747 C 201.829 278.026,201.406 274.450,201.201 272.800 C 199.949 262.752,199.731 263.517,203.796 263.684 L 206.600 263.800 206.901 266.000 M344.543 263.908 C 344.648 264.078,344.376 265.653,343.938 267.408 C 341.172 278.496,341.064 279.133,341.763 280.200 C 343.337 282.601,348.105 280.412,349.246 276.764 C 349.667 275.418,350.499 272.116,351.204 269.000 C 351.402 268.120,351.805 266.590,352.099 265.600 L 352.632 263.800 355.377 263.680 C 358.827 263.530,359.009 263.721,358.213 266.647 C 357.140 270.590,356.857 271.669,355.973 275.200 C 355.083 278.754,354.812 279.892,353.951 283.714 C 353.368 286.299,352.997 286.543,349.968 286.326 C 348.374 286.212,348.188 286.092,348.073 285.100 C 347.918 283.749,348.074 283.738,345.600 285.276 C 341.937 287.553,337.564 287.299,335.361 284.680 C 334.251 283.362,334.170 280.637,335.133 277.000 C 335.366 276.120,335.846 274.230,336.200 272.800 C 338.025 265.429,338.266 264.541,338.571 264.047 C 338.882 263.544,344.241 263.419,344.543 263.908 M125.755 268.792 C 124.889 269.142,123.200 271.034,123.200 271.654 C 123.200 272.404,130.728 272.058,130.900 271.300 C 131.422 268.995,128.626 267.632,125.755 268.792 M308.000 268.690 C 305.431 269.153,302.819 273.855,302.806 278.038 C 302.790 282.903,309.756 282.726,312.144 277.800 C 315.385 271.114,313.806 267.641,308.000 268.690 M245.422 273.100 C 245.273 273.705,245.050 274.740,244.926 275.400 C 244.527 277.515,244.294 277.600,238.899 277.600 L 233.897 277.600 234.171 275.531 C 234.651 271.917,234.504 272.000,240.461 272.000 L 245.693 272.000 245.422 273.100 " stroke="none" fill="#fbfbfb" fill-rule="evenodd"/><path id="path2" d="M227.100 104.698 C 229.355 104.770,233.045 104.770,235.300 104.698 C 237.555 104.627,235.710 104.569,231.200 104.569 C 226.690 104.569,224.845 104.627,227.100 104.698 M247.800 104.676 C 254.639 104.962,261.910 104.975,261.739 104.700 C 261.637 104.535,257.828 104.436,253.276 104.479 C 248.724 104.523,246.260 104.612,247.800 104.676 M181.993 111.719 L 182.185 113.800 182.318 112.046 C 182.391 111.081,182.305 110.144,182.126 109.965 C 181.947 109.785,181.887 110.575,181.993 111.719 M242.400 112.400 L 240.200 112.670 242.276 112.735 C 243.418 112.771,244.464 112.620,244.600 112.400 C 244.736 112.180,244.792 112.029,244.724 112.065 C 244.656 112.101,243.610 112.252,242.400 112.400 M158.249 133.015 C 158.112 133.373,158.015 133.966,158.034 134.333 C 158.053 134.700,158.227 134.469,158.421 133.820 C 158.798 132.558,158.665 131.933,158.249 133.015 M156.249 140.215 C 156.112 140.573,156.015 141.166,156.034 141.533 C 156.053 141.900,156.227 141.669,156.421 141.020 C 156.798 139.758,156.665 139.133,156.249 140.215 M242.400 142.000 L 223.400 142.212 242.276 142.306 C 254.532 142.367,261.239 142.260,261.400 142.000 C 261.536 141.780,261.592 141.642,261.524 141.694 C 261.456 141.746,252.850 141.884,242.400 142.000 M187.462 145.500 C 187.294 145.772,212.700 145.769,246.200 145.494 C 253.240 145.436,242.946 145.346,223.324 145.294 C 203.702 145.242,187.564 145.335,187.462 145.500 M154.249 147.415 C 154.112 147.773,154.015 148.366,154.034 148.733 C 154.053 149.100,154.227 148.869,154.421 148.220 C 154.798 146.958,154.665 146.333,154.249 147.415 M152.249 154.615 C 152.112 154.973,152.015 155.566,152.034 155.933 C 152.053 156.300,152.227 156.069,152.421 155.420 C 152.798 154.158,152.665 153.533,152.249 154.615 M190.115 161.096 C 191.388 161.176,193.368 161.175,194.515 161.094 C 195.662 161.014,194.620 160.949,192.200 160.950 C 189.780 160.951,188.842 161.016,190.115 161.096 M244.071 163.220 C 243.993 166.108,244.381 166.827,245.980 166.753 C 246.926 166.709,246.913 166.687,245.800 166.451 C 244.635 166.203,244.593 166.115,244.371 163.398 L 244.141 160.600 244.071 163.220 M196.493 171.896 L 196.400 182.392 177.500 182.500 L 158.600 182.608 177.513 182.704 C 192.481 182.780,196.466 182.694,196.620 182.293 C 196.727 182.014,196.763 177.199,196.700 171.593 L 196.586 161.400 196.493 171.896 M148.154 168.977 C 148.032 169.294,148.003 169.879,148.089 170.277 C 148.187 170.728,148.324 170.512,148.454 169.700 C 148.671 168.338,148.530 167.996,148.154 168.977 M152.783 175.700 C 153.764 176.745,154.619 177.600,154.683 177.600 C 154.984 177.600,154.666 177.241,152.900 175.583 L 151.000 173.800 152.783 175.700 M125.100 176.689 C 125.815 176.778,126.985 176.778,127.700 176.689 C 128.415 176.601,127.830 176.528,126.400 176.528 C 124.970 176.528,124.385 176.601,125.100 176.689 M233.507 176.690 C 234.226 176.779,235.306 176.777,235.907 176.686 C 236.508 176.595,235.920 176.522,234.600 176.524 C 233.280 176.526,232.788 176.601,233.507 176.690 M263.000 178.000 C 263.859 178.880,264.652 179.600,264.762 179.600 C 264.872 179.600,264.259 178.880,263.400 178.000 C 262.541 177.120,261.748 176.400,261.638 176.400 C 261.528 176.400,262.141 177.120,263.000 178.000 M225.000 178.214 C 223.995 178.698,223.963 178.753,224.800 178.551 C 225.350 178.419,225.971 178.150,226.180 177.955 C 226.698 177.471,226.414 177.533,225.000 178.214 M249.200 180.911 C 249.200 180.987,249.785 181.478,250.500 182.001 C 251.304 182.590,251.584 182.687,251.233 182.255 C 250.700 181.599,249.200 180.607,249.200 180.911 M117.800 182.285 C 116.575 182.580,116.198 183.128,117.376 182.903 C 117.946 182.794,118.510 182.546,118.630 182.352 C 118.749 182.159,118.792 182.021,118.724 182.046 C 118.656 182.072,118.240 182.179,117.800 182.285 M241.406 182.410 C 241.506 182.572,242.035 182.790,242.582 182.894 C 243.129 182.999,243.494 182.952,243.394 182.790 C 243.294 182.628,242.765 182.410,242.218 182.306 C 241.671 182.201,241.306 182.248,241.406 182.410 M215.775 184.100 L 214.600 185.400 215.900 184.225 C 216.615 183.579,217.200 182.994,217.200 182.925 C 217.200 182.616,216.870 182.888,215.775 184.100 M109.588 187.900 L 107.000 190.600 109.700 188.012 C 111.185 186.588,112.400 185.373,112.400 185.312 C 112.400 185.017,111.993 185.392,109.588 187.900 M104.587 195.000 C 104.484 195.330,104.312 195.879,104.205 196.221 C 104.097 196.562,104.166 196.745,104.357 196.627 C 104.548 196.509,104.791 195.959,104.897 195.406 C 105.106 194.313,104.890 194.030,104.587 195.000 M272.040 197.633 C 272.062 198.605,272.225 199.850,272.402 200.400 C 272.595 201.000,272.637 200.360,272.506 198.800 C 272.251 195.762,271.982 195.089,272.040 197.633 M260.398 198.385 C 260.539 199.487,260.757 200.490,260.881 200.614 C 261.209 200.942,260.755 197.058,260.422 196.690 C 260.267 196.520,260.257 197.283,260.398 198.385 M256.000 198.376 C 256.000 199.023,256.142 199.641,256.316 199.748 C 256.490 199.856,256.561 199.327,256.473 198.572 C 256.276 196.891,256.000 196.777,256.000 198.376 M152.520 199.600 C 152.520 200.810,152.595 201.305,152.687 200.700 C 152.778 200.095,152.778 199.105,152.687 198.500 C 152.595 197.895,152.520 198.390,152.520 199.600 M208.249 198.615 C 208.112 198.973,208.030 200.466,208.066 201.933 L 208.132 204.600 208.382 201.400 C 208.651 197.957,208.635 197.612,208.249 198.615 M212.572 199.328 C 212.461 199.619,212.423 201.644,212.488 203.828 L 212.606 207.800 212.803 203.299 C 212.998 198.845,212.966 198.301,212.572 199.328 M224.158 200.166 C 224.038 200.478,224.005 201.243,224.084 201.866 C 224.202 202.791,224.264 202.687,224.425 201.300 C 224.627 199.551,224.538 199.175,224.158 200.166 M224.000 205.376 C 224.000 206.133,224.138 206.838,224.307 206.943 C 224.476 207.047,224.548 206.428,224.465 205.566 C 224.281 203.632,224.000 203.518,224.000 205.376 M153.514 205.804 C 153.741 206.247,154.348 206.966,154.863 207.402 C 155.767 208.166,155.765 208.152,154.806 206.997 C 153.213 205.079,153.079 204.955,153.514 205.804 M256.156 206.971 C 256.035 207.285,256.004 207.960,256.086 208.471 C 256.195 209.154,256.288 209.004,256.437 207.900 C 256.647 206.347,256.536 205.981,256.156 206.971 M205.793 207.211 C 205.653 207.438,204.968 207.886,204.269 208.207 C 203.314 208.647,203.248 208.733,204.000 208.554 C 204.910 208.338,206.937 206.800,206.312 206.800 C 206.167 206.800,205.933 206.985,205.793 207.211 M134.432 208.369 C 134.414 208.681,134.092 209.311,133.715 209.769 C 133.069 210.553,133.083 210.551,133.962 209.742 C 134.475 209.270,134.797 208.640,134.679 208.342 C 134.504 207.903,134.457 207.908,134.432 208.369 M131.783 211.628 C 131.637 211.863,131.132 212.212,130.659 212.403 C 130.073 212.639,130.003 212.757,130.438 212.775 C 130.789 212.789,131.402 212.440,131.800 212.000 C 132.198 211.560,132.417 211.200,132.286 211.200 C 132.154 211.200,131.928 211.393,131.783 211.628 M144.153 214.500 C 142.776 216.836,142.686 217.035,143.387 216.200 C 144.200 215.232,144.900 214.000,144.638 214.000 C 144.533 214.000,144.315 214.225,144.153 214.500 M250.417 218.585 L 248.233 221.000 250.598 218.714 C 251.898 217.457,252.881 216.371,252.781 216.300 C 252.682 216.229,251.617 217.257,250.417 218.585 M116.633 224.054 C 116.748 224.240,108.778 224.440,98.921 224.500 L 81.000 224.608 99.700 224.704 C 116.288 224.789,120.941 224.579,117.412 223.904 C 116.869 223.801,116.518 223.868,116.633 224.054 M132.262 224.500 C 132.364 224.665,153.846 224.800,180.000 224.800 C 206.154 224.800,227.636 224.665,227.738 224.500 C 227.840 224.335,206.358 224.200,180.000 224.200 C 153.642 224.200,132.160 224.335,132.262 224.500 M241.600 224.500 C 241.600 224.665,256.980 224.800,275.777 224.800 L 309.954 224.800 310.107 226.500 L 310.260 228.200 310.330 226.487 C 310.373 225.427,310.209 224.704,309.900 224.589 C 309.044 224.271,241.600 224.183,241.600 224.500 M157.471 255.483 C 157.362 255.657,158.631 255.740,160.290 255.667 L 163.306 255.533 163.103 256.597 C 162.971 257.284,163.037 257.523,163.287 257.273 C 163.500 257.060,163.611 256.551,163.533 256.142 C 163.384 255.359,157.918 254.765,157.471 255.483 M180.814 255.974 C 180.586 256.399,180.416 257.074,180.436 257.474 C 180.456 257.873,180.639 257.623,180.843 256.917 C 181.211 255.645,181.237 255.634,184.107 255.497 L 187.000 255.359 184.114 255.279 C 181.623 255.211,181.172 255.306,180.814 255.974 M79.461 257.100 C 79.358 257.265,81.192 257.353,83.537 257.295 C 91.119 257.108,91.941 256.950,85.724 256.874 C 82.382 256.833,79.563 256.935,79.461 257.100 M263.461 257.100 C 263.358 257.265,264.293 257.349,265.537 257.287 C 269.444 257.092,269.915 256.922,266.724 256.860 C 265.032 256.827,263.563 256.935,263.461 257.100 M285.600 257.046 C 287.988 257.346,290.710 257.376,290.539 257.100 C 290.436 256.935,289.058 256.827,287.476 256.860 C 285.894 256.893,285.050 256.976,285.600 257.046 M282.975 258.500 L 281.800 259.800 283.100 258.625 C 283.815 257.979,284.400 257.394,284.400 257.325 C 284.400 257.016,284.070 257.288,282.975 258.500 M186.229 258.629 C 186.081 259.215,186.038 259.772,186.132 259.866 C 186.227 259.960,186.424 259.558,186.571 258.971 C 186.719 258.385,186.762 257.828,186.668 257.734 C 186.573 257.640,186.376 258.042,186.229 258.629 M179.959 261.321 C 180.136 261.497,181.433 261.585,182.841 261.516 L 185.400 261.391 182.518 261.195 C 180.933 261.088,179.781 261.144,179.959 261.321 M77.429 263.429 C 77.281 264.015,77.238 264.572,77.332 264.666 C 77.427 264.760,77.624 264.358,77.771 263.771 C 77.919 263.185,77.962 262.628,77.868 262.534 C 77.773 262.440,77.576 262.842,77.429 263.429 M84.267 262.667 C 84.120 262.813,84.003 263.128,84.006 263.367 C 84.010 263.637,84.128 263.618,84.319 263.318 C 84.506 263.023,85.943 262.782,88.013 262.699 L 91.400 262.563 87.967 262.481 C 86.078 262.437,84.413 262.520,84.267 262.667 M278.575 263.700 L 277.400 265.000 278.700 263.825 C 279.415 263.179,280.000 262.594,280.000 262.525 C 280.000 262.216,279.670 262.488,278.575 263.700 M130.833 263.344 C 130.925 263.423,131.540 263.608,132.200 263.756 C 133.076 263.952,133.238 263.915,132.800 263.618 C 132.260 263.253,130.432 262.998,130.833 263.344 M312.833 263.343 C 312.925 263.421,313.630 263.601,314.400 263.742 C 315.385 263.923,315.622 263.882,315.200 263.606 C 314.658 263.250,312.437 263.003,312.833 263.343 M102.137 266.600 C 102.139 268.360,102.209 269.030,102.293 268.089 C 102.378 267.149,102.377 265.709,102.291 264.889 C 102.205 264.070,102.136 264.840,102.137 266.600 M178.880 264.080 C 178.616 264.344,178.418 264.929,178.440 265.380 C 178.473 266.066,178.525 266.037,178.756 265.200 C 179.011 264.276,179.261 264.183,182.016 263.972 L 185.000 263.744 182.180 263.672 C 180.429 263.627,179.178 263.782,178.880 264.080 M201.600 263.846 C 203.988 264.146,206.710 264.176,206.539 263.900 C 206.436 263.735,205.058 263.627,203.476 263.660 C 201.894 263.693,201.050 263.776,201.600 263.846 M218.500 263.891 C 219.325 263.978,220.675 263.978,221.500 263.891 C 222.325 263.805,221.650 263.734,220.000 263.734 C 218.350 263.734,217.675 263.805,218.500 263.891 M338.671 263.883 C 338.562 264.057,339.742 264.139,341.292 264.065 C 343.316 263.968,344.215 264.081,344.485 264.465 C 344.785 264.892,344.828 264.879,344.698 264.400 C 344.521 263.745,339.049 263.276,338.671 263.883 M352.594 264.010 C 352.443 264.254,352.428 264.561,352.560 264.693 C 352.692 264.825,352.800 264.723,352.800 264.467 C 352.800 263.796,358.284 263.828,358.509 264.500 C 358.606 264.788,358.659 264.746,358.634 264.400 C 358.581 263.651,353.037 263.293,352.594 264.010 M282.825 266.569 L 281.450 268.200 283.005 266.713 C 283.860 265.896,284.479 265.162,284.380 265.083 C 284.281 265.003,283.581 265.672,282.825 266.569 M119.651 266.991 C 118.743 267.976,118.000 268.906,118.000 269.058 C 118.000 269.209,118.059 269.258,118.132 269.167 C 118.204 269.075,119.037 268.145,119.983 267.100 C 120.928 266.055,121.612 265.200,121.502 265.200 C 121.392 265.200,120.559 266.006,119.651 266.991 M300.981 266.900 L 299.400 268.600 301.194 267.000 C 302.180 266.120,303.065 265.355,303.161 265.300 C 303.256 265.245,303.160 265.200,302.948 265.200 C 302.736 265.200,301.851 265.965,300.981 266.900 M184.229 266.629 C 184.081 267.215,184.038 267.772,184.132 267.866 C 184.227 267.960,184.424 267.558,184.571 266.971 C 184.719 266.385,184.762 265.828,184.668 265.734 C 184.573 265.640,184.376 266.042,184.229 266.629 M200.509 267.200 C 200.509 268.190,200.587 268.595,200.682 268.100 C 200.778 267.605,200.778 266.795,200.682 266.300 C 200.587 265.805,200.509 266.210,200.509 267.200 M351.429 267.829 C 351.281 268.415,351.238 268.972,351.332 269.066 C 351.427 269.160,351.624 268.758,351.771 268.171 C 351.919 267.585,351.962 267.028,351.868 266.934 C 351.773 266.840,351.576 267.242,351.429 267.829 M207.088 269.600 C 207.211 270.810,207.377 271.875,207.456 271.967 C 207.753 272.311,207.530 268.967,207.204 268.200 C 206.992 267.702,206.949 268.231,207.088 269.600 M95.293 269.200 C 95.293 269.970,95.375 270.285,95.476 269.900 C 95.576 269.515,95.576 268.885,95.476 268.500 C 95.375 268.115,95.293 268.430,95.293 269.200 M126.046 268.363 C 125.707 268.578,126.251 268.632,127.446 268.504 C 128.521 268.388,129.475 268.228,129.567 268.147 C 129.929 267.828,126.565 268.035,126.046 268.363 M320.128 270.800 C 320.128 272.230,320.201 272.815,320.289 272.100 C 320.378 271.385,320.378 270.215,320.289 269.500 C 320.201 268.785,320.128 269.370,320.128 270.800 M343.246 268.867 C 343.221 269.234,343.096 269.864,342.970 270.267 C 342.752 270.962,342.763 270.963,343.197 270.287 C 343.448 269.896,343.573 269.266,343.473 268.887 C 343.311 268.268,343.288 268.266,343.246 268.867 M279.373 270.500 C 276.412 273.753,275.865 274.400,276.076 274.400 C 276.201 274.400,277.330 273.230,278.585 271.800 C 280.910 269.152,281.527 268.134,279.373 270.500 M75.429 271.429 C 75.281 272.015,75.238 272.572,75.332 272.666 C 75.427 272.760,75.624 272.358,75.771 271.771 C 75.919 271.185,75.962 270.628,75.868 270.534 C 75.773 270.440,75.576 270.842,75.429 271.429 M130.800 271.360 C 130.800 271.980,130.377 272.040,126.799 271.927 C 124.599 271.857,122.799 271.935,122.799 272.100 C 122.801 272.746,130.810 272.438,131.062 271.783 C 131.192 271.443,131.187 271.053,131.049 270.916 C 130.912 270.779,130.800 270.979,130.800 271.360 M176.649 272.215 C 176.512 272.573,176.415 273.166,176.434 273.533 C 176.453 273.900,176.627 273.669,176.821 273.020 C 177.198 271.758,177.065 271.133,176.649 272.215 M245.246 272.467 C 245.221 272.834,245.096 273.464,244.970 273.867 C 244.752 274.562,244.763 274.563,245.197 273.887 C 245.448 273.496,245.573 272.866,245.473 272.487 C 245.311 271.868,245.288 271.866,245.246 272.467 M313.450 273.650 C 313.309 274.353,313.269 275.002,313.359 275.092 C 313.450 275.183,313.648 274.691,313.800 274.000 C 313.952 273.309,313.993 272.659,313.891 272.558 C 313.789 272.456,313.591 272.947,313.450 273.650 M201.240 273.833 C 201.262 274.475,201.433 275.450,201.620 276.000 C 201.849 276.674,201.884 276.349,201.728 275.000 C 201.469 272.750,201.179 272.059,201.240 273.833 M182.229 274.629 C 182.081 275.215,182.038 275.772,182.132 275.866 C 182.227 275.960,182.424 275.558,182.571 274.971 C 182.719 274.385,182.762 273.828,182.668 273.734 C 182.573 273.640,182.376 274.042,182.229 274.629 M207.677 276.076 C 207.604 278.631,208.047 279.896,208.554 278.577 C 208.684 278.237,208.622 278.063,208.415 278.191 C 208.200 278.323,207.978 277.344,207.896 275.912 L 207.754 273.400 207.677 276.076 M115.449 275.415 C 115.312 275.773,115.215 276.366,115.234 276.733 C 115.253 277.100,115.427 276.869,115.621 276.220 C 115.998 274.958,115.865 274.333,115.449 275.415 M244.311 276.298 C 244.092 277.135,243.846 277.181,238.941 277.301 L 233.800 277.426 238.851 277.513 C 244.019 277.602,245.164 277.291,244.708 275.924 C 244.616 275.647,244.437 275.815,244.311 276.298 M125.100 276.698 C 127.135 276.771,130.465 276.771,132.500 276.698 C 134.535 276.625,132.870 276.566,128.800 276.566 C 124.730 276.566,123.065 276.625,125.100 276.698 M341.020 277.833 C 340.777 279.127,341.515 281.200,342.218 281.200 C 342.328 281.200,342.133 280.765,341.785 280.233 C 341.340 279.554,341.231 278.839,341.420 277.833 C 341.568 277.045,341.599 276.400,341.489 276.400 C 341.379 276.400,341.168 277.045,341.020 277.833 M121.301 278.600 C 121.305 279.480,121.387 279.793,121.483 279.295 C 121.579 278.798,121.575 278.078,121.475 277.695 C 121.375 277.313,121.296 277.720,121.301 278.600 M296.101 279.400 C 296.105 280.280,296.187 280.593,296.283 280.095 C 296.379 279.598,296.375 278.878,296.275 278.495 C 296.175 278.113,296.096 278.520,296.101 279.400 M334.649 278.615 C 334.512 278.973,334.428 280.286,334.463 281.533 L 334.526 283.800 334.786 281.000 C 335.064 277.998,335.041 277.595,334.649 278.615 M73.429 279.429 C 73.281 280.015,73.238 280.572,73.332 280.666 C 73.427 280.760,73.624 280.358,73.771 279.771 C 73.919 279.185,73.962 278.628,73.868 278.534 C 73.773 278.440,73.576 278.842,73.429 279.429 M347.949 279.065 C 347.647 279.430,346.860 280.060,346.200 280.463 C 345.540 280.867,345.228 281.198,345.506 281.199 C 346.008 281.200,349.229 278.432,348.749 278.411 C 348.611 278.405,348.251 278.699,347.949 279.065 M174.649 280.215 C 174.512 280.573,174.415 281.166,174.434 281.533 C 174.453 281.900,174.627 281.669,174.821 281.020 C 175.198 279.758,175.065 279.133,174.649 280.215 M81.913 280.695 C 83.076 280.776,84.876 280.776,85.913 280.693 C 86.951 280.611,86.000 280.545,83.800 280.546 C 81.600 280.547,80.751 280.614,81.913 280.695 M180.229 282.629 C 180.081 283.215,180.038 283.772,180.132 283.866 C 180.227 283.960,180.424 283.558,180.571 282.971 C 180.719 282.385,180.762 281.828,180.668 281.734 C 180.573 281.640,180.376 282.042,180.229 282.629 M202.501 283.400 C 202.505 284.280,202.587 284.593,202.683 284.095 C 202.779 283.598,202.775 282.878,202.675 282.495 C 202.575 282.113,202.496 282.520,202.501 283.400 M273.112 285.092 C 272.909 285.870,272.570 285.978,269.942 286.102 L 267.000 286.241 269.851 286.321 C 272.754 286.401,273.900 285.901,273.508 284.724 C 273.415 284.446,273.238 284.611,273.112 285.092 M209.380 285.580 C 209.171 285.788,207.740 286.023,206.200 286.101 L 203.400 286.243 206.251 286.322 C 208.370 286.380,209.230 286.246,209.600 285.800 C 210.148 285.140,209.984 284.976,209.380 285.580 M76.100 286.298 C 78.025 286.371,81.175 286.371,83.100 286.298 C 85.025 286.225,83.450 286.165,79.600 286.165 C 75.750 286.165,74.175 286.225,76.100 286.298 M151.491 286.289 C 152.201 286.377,153.461 286.379,154.291 286.292 C 155.121 286.205,154.540 286.133,153.000 286.131 C 151.460 286.129,150.781 286.200,151.491 286.289 M175.091 286.289 C 175.801 286.377,177.061 286.379,177.891 286.292 C 178.721 286.205,178.140 286.133,176.600 286.131 C 175.060 286.129,174.381 286.200,175.091 286.289 M301.400 286.381 C 302.168 286.729,304.310 286.956,303.967 286.653 C 303.875 286.572,303.080 286.396,302.200 286.262 C 301.085 286.093,300.842 286.129,301.400 286.381 M307.600 286.400 C 306.243 286.686,306.237 286.695,307.400 286.707 C 308.060 286.715,309.050 286.576,309.600 286.400 C 310.912 285.980,309.596 285.980,307.600 286.400 M337.600 286.394 C 337.930 286.611,338.635 286.791,339.167 286.794 C 340.451 286.802,340.125 286.575,338.400 286.258 C 337.415 286.077,337.178 286.118,337.600 286.394 M342.000 286.400 C 341.196 286.657,341.157 286.723,341.800 286.732 C 342.240 286.738,342.960 286.589,343.400 286.400 C 344.419 285.962,343.368 285.962,342.000 286.400 M349.507 286.290 C 350.226 286.379,351.306 286.377,351.907 286.286 C 352.508 286.195,351.920 286.122,350.600 286.124 C 349.280 286.126,348.788 286.201,349.507 286.290 " stroke="none" fill="#9d9d9d" fill-rule="evenodd"/><path id="path3" d="M239.342 108.200 C 239.341 110.180,239.408 111.040,239.492 110.112 C 239.576 109.184,239.577 107.564,239.495 106.512 C 239.412 105.460,239.343 106.220,239.342 108.200 M166.500 117.498 C 168.645 117.570,172.155 117.570,174.300 117.498 C 176.445 117.426,174.690 117.367,170.400 117.367 C 166.110 117.367,164.355 117.426,166.500 117.498 M263.334 153.200 C 263.334 154.850,263.405 155.525,263.491 154.700 C 263.578 153.875,263.578 152.525,263.491 151.700 C 263.405 150.875,263.334 151.550,263.334 153.200 M147.337 203.400 C 147.339 205.160,147.409 205.830,147.493 204.889 C 147.578 203.949,147.577 202.509,147.491 201.689 C 147.405 200.870,147.336 201.640,147.337 203.400 M81.541 228.501 C 81.706 228.666,133.132 228.756,195.821 228.701 L 309.800 228.600 195.520 228.400 C 132.666 228.290,81.375 228.335,81.541 228.501 M128.300 263.482 C 128.795 263.578,129.605 263.578,130.100 263.482 C 130.595 263.387,130.190 263.309,129.200 263.309 C 128.210 263.309,127.805 263.387,128.300 263.482 M310.300 263.482 C 310.795 263.578,311.605 263.578,312.100 263.482 C 312.595 263.387,312.190 263.309,311.200 263.309 C 310.210 263.309,309.805 263.387,310.300 263.482 M304.500 286.676 C 304.885 286.776,305.515 286.776,305.900 286.676 C 306.285 286.575,305.970 286.493,305.200 286.493 C 304.430 286.493,304.115 286.575,304.500 286.676 " stroke="none" fill="#848484" fill-rule="evenodd"/><path id="path4" d="M245.282 108.220 C 245.237 110.211,245.021 112.057,244.801 112.321 C 244.582 112.586,244.680 112.563,245.018 112.271 C 245.507 111.848,245.606 111.004,245.499 108.169 L 245.365 104.600 245.282 108.220 M261.696 105.319 C 262.335 105.836,262.400 107.329,262.500 123.641 L 262.609 141.400 262.704 123.514 L 262.800 105.628 261.900 105.192 C 261.091 104.800,261.070 104.813,261.696 105.319 M222.183 105.700 C 222.078 105.975,222.038 114.120,222.096 123.800 L 222.200 141.400 222.400 123.300 C 222.510 113.345,222.549 105.200,222.487 105.200 C 222.426 105.200,222.289 105.425,222.183 105.700 M155.737 106.306 C 155.482 106.468,158.992 106.553,163.537 106.496 C 176.875 106.328,178.176 106.164,166.800 106.086 C 160.970 106.045,155.991 106.144,155.737 106.306 M160.623 123.300 C 160.208 124.667,160.107 125.581,160.391 125.405 C 160.565 125.298,160.787 124.668,160.885 124.005 C 161.063 122.793,160.906 122.370,160.623 123.300 M156.623 137.700 C 156.208 139.067,156.107 139.981,156.391 139.805 C 156.565 139.698,156.787 139.068,156.885 138.405 C 157.063 137.193,156.906 136.770,156.623 137.700 M154.623 144.900 C 154.208 146.267,154.107 147.181,154.391 147.005 C 154.565 146.898,154.787 146.268,154.885 145.605 C 155.063 144.393,154.906 143.970,154.623 144.900 M205.300 145.900 C 215.145 145.959,231.255 145.959,241.100 145.900 C 250.945 145.840,242.890 145.792,223.200 145.792 C 203.510 145.792,195.455 145.840,205.300 145.900 M183.264 153.276 C 183.229 155.408,183.335 157.237,183.500 157.340 C 183.665 157.442,183.751 156.238,183.691 154.663 C 183.504 149.790,183.331 149.226,183.264 153.276 M152.623 152.100 C 152.208 153.467,152.107 154.381,152.391 154.205 C 152.565 154.098,152.787 153.468,152.885 152.805 C 153.063 151.593,152.906 151.170,152.623 152.100 M150.623 159.300 C 150.208 160.667,150.107 161.581,150.391 161.405 C 150.565 161.298,150.787 160.668,150.885 160.005 C 151.063 158.793,150.906 158.370,150.623 159.300 M186.718 160.477 C 186.873 160.629,189.197 160.809,191.882 160.877 C 194.566 160.944,196.636 160.876,196.482 160.723 C 196.327 160.571,194.003 160.391,191.318 160.323 C 188.634 160.256,186.564 160.324,186.718 160.477 M248.100 160.698 C 250.245 160.770,253.755 160.770,255.900 160.698 C 258.045 160.626,256.290 160.567,252.000 160.567 C 247.710 160.567,245.955 160.626,248.100 160.698 M148.623 166.500 C 148.208 167.867,148.107 168.781,148.391 168.605 C 148.565 168.498,148.787 167.868,148.885 167.205 C 149.063 165.993,148.906 165.570,148.623 166.500 M125.100 176.289 C 125.815 176.378,126.985 176.378,127.700 176.289 C 128.415 176.201,127.830 176.128,126.400 176.128 C 124.970 176.128,124.385 176.201,125.100 176.289 M233.507 176.290 C 234.226 176.379,235.306 176.377,235.907 176.286 C 236.508 176.195,235.920 176.122,234.600 176.124 C 233.280 176.126,232.788 176.201,233.507 176.290 M121.505 176.683 C 122.002 176.779,122.722 176.775,123.105 176.675 C 123.487 176.575,123.080 176.496,122.200 176.501 C 121.320 176.505,121.007 176.587,121.505 176.683 M129.400 176.603 C 130.314 176.921,132.729 177.009,132.548 176.716 C 132.441 176.542,131.598 176.414,130.676 176.432 C 129.754 176.449,129.180 176.526,129.400 176.603 M229.505 176.683 C 230.002 176.779,230.722 176.775,231.105 176.675 C 231.487 176.575,231.080 176.496,230.200 176.501 C 229.320 176.505,229.007 176.587,229.505 176.683 M238.305 176.683 C 238.802 176.779,239.522 176.775,239.905 176.675 C 240.287 176.575,239.880 176.496,239.000 176.501 C 238.120 176.505,237.807 176.587,238.305 176.683 M114.538 177.694 C 114.792 177.856,115.540 177.988,116.200 177.988 C 116.860 177.988,117.608 177.856,117.862 177.694 C 118.116 177.532,117.368 177.400,116.200 177.400 C 115.032 177.400,114.284 177.532,114.538 177.694 M121.400 181.600 C 121.264 181.820,120.634 182.000,120.000 182.000 C 119.366 182.000,118.752 182.154,118.636 182.342 C 118.386 182.747,120.255 182.498,121.400 181.974 C 121.840 181.772,123.730 181.553,125.600 181.485 L 129.000 181.363 125.324 181.281 C 123.212 181.235,121.542 181.370,121.400 181.600 M232.500 181.494 C 233.545 181.576,235.255 181.576,236.300 181.494 C 237.345 181.412,236.490 181.344,234.400 181.344 C 232.310 181.344,231.455 181.412,232.500 181.494 M238.624 182.039 C 238.717 182.189,239.412 182.384,240.168 182.472 C 240.925 182.561,241.468 182.510,241.376 182.361 C 241.283 182.211,240.588 182.016,239.832 181.928 C 239.075 181.839,238.532 181.890,238.624 182.039 M129.600 182.156 C 129.600 182.242,130.217 182.385,130.972 182.473 C 131.727 182.561,132.256 182.490,132.148 182.316 C 131.955 182.003,129.600 181.855,129.600 182.156 M144.783 183.700 C 146.441 185.466,146.800 185.784,146.800 185.483 C 146.800 185.419,145.945 184.564,144.900 183.583 L 143.000 181.800 144.783 183.700 M228.500 182.276 C 228.885 182.376,229.515 182.376,229.900 182.276 C 230.285 182.175,229.970 182.093,229.200 182.093 C 228.430 182.093,228.115 182.175,228.500 182.276 M253.795 184.800 C 255.321 186.450,256.645 187.890,256.739 188.000 C 256.832 188.110,256.717 187.840,256.483 187.400 C 256.249 186.960,254.925 185.520,253.540 184.200 L 251.022 181.800 253.795 184.800 M133.600 182.997 C 133.600 183.064,134.365 183.504,135.300 183.975 C 136.867 184.763,136.922 184.768,136.000 184.036 C 135.109 183.329,133.600 182.676,133.600 182.997 M242.800 182.997 C 242.800 183.064,243.565 183.504,244.500 183.975 C 246.067 184.763,246.122 184.768,245.200 184.036 C 244.309 183.329,242.800 182.676,242.800 182.997 M114.800 183.833 C 113.448 184.584,114.411 184.555,115.854 183.802 C 116.484 183.474,116.730 183.221,116.400 183.242 C 116.070 183.262,115.350 183.528,114.800 183.833 M219.188 187.900 L 216.600 190.600 219.390 188.000 C 220.924 186.570,222.259 185.355,222.356 185.300 C 222.454 185.245,222.363 185.200,222.155 185.200 C 221.947 185.200,220.612 186.415,219.188 187.900 M105.700 193.093 C 104.988 194.611,105.084 195.233,105.813 193.833 C 106.148 193.191,106.372 192.522,106.311 192.346 C 106.250 192.170,105.975 192.506,105.700 193.093 M121.861 192.700 C 121.758 192.865,122.782 192.950,124.137 192.889 C 128.548 192.689,129.070 192.529,125.524 192.464 C 123.612 192.429,121.963 192.535,121.861 192.700 M231.062 192.700 C 230.960 192.865,232.552 193.000,234.600 193.000 C 236.648 193.000,238.240 192.865,238.138 192.700 C 238.036 192.535,236.444 192.400,234.600 192.400 C 232.756 192.400,231.164 192.535,231.062 192.700 M119.783 193.628 C 119.637 193.863,119.132 194.212,118.659 194.403 C 118.073 194.639,118.003 194.757,118.438 194.775 C 118.789 194.789,119.402 194.440,119.800 194.000 C 120.198 193.560,120.417 193.200,120.286 193.200 C 120.154 193.200,119.928 193.393,119.783 193.628 M254.306 194.218 C 254.410 194.765,254.628 195.294,254.790 195.394 C 254.952 195.494,254.999 195.129,254.894 194.582 C 254.790 194.035,254.572 193.506,254.410 193.406 C 254.248 193.306,254.201 193.671,254.306 194.218 M208.622 195.700 C 208.272 196.846,208.011 198.923,208.247 198.687 C 208.542 198.391,209.171 195.200,208.934 195.200 C 208.846 195.200,208.706 195.425,208.622 195.700 M116.432 196.369 C 116.414 196.681,116.092 197.311,115.715 197.769 C 115.069 198.553,115.083 198.551,115.962 197.742 C 116.475 197.270,116.797 196.640,116.679 196.342 C 116.504 195.903,116.457 195.908,116.432 196.369 M146.380 198.510 C 146.575 200.158,146.583 200.167,146.719 198.849 C 146.796 198.106,146.706 197.346,146.520 197.160 C 146.333 196.973,146.271 197.581,146.380 198.510 M213.168 198.100 C 213.049 198.960,213.110 199.450,213.312 199.248 C 213.505 199.055,213.598 198.381,213.519 197.749 C 213.387 196.691,213.359 196.719,213.168 198.100 M103.467 199.467 C 103.098 199.835,103.129 207.109,103.500 207.338 C 103.665 207.440,103.800 205.651,103.800 203.362 C 103.800 201.073,103.785 199.200,103.767 199.200 C 103.748 199.200,103.613 199.320,103.467 199.467 M261.103 201.696 C 261.313 205.090,261.531 205.520,261.562 202.600 C 261.576 201.280,261.444 199.973,261.268 199.696 C 261.092 199.420,261.018 200.320,261.103 201.696 M114.501 201.400 C 114.505 202.280,114.587 202.593,114.683 202.095 C 114.779 201.598,114.775 200.878,114.675 200.495 C 114.575 200.113,114.496 200.520,114.501 201.400 M245.342 203.400 C 245.341 205.380,245.408 206.240,245.492 205.312 C 245.576 204.384,245.577 202.764,245.495 201.712 C 245.412 200.660,245.343 201.420,245.342 203.400 M136.137 203.400 C 136.139 205.160,136.209 205.830,136.293 204.889 C 136.378 203.949,136.377 202.509,136.291 201.689 C 136.205 200.870,136.136 201.640,136.137 203.400 M256.396 203.482 C 256.288 205.287,256.343 206.620,256.519 206.443 C 256.694 206.267,256.782 204.790,256.715 203.161 L 256.593 200.200 256.396 203.482 M153.232 203.476 C 153.214 204.398,153.342 205.241,153.516 205.348 C 153.690 205.456,153.767 204.882,153.687 204.072 C 153.469 201.858,153.267 201.595,153.232 203.476 M114.400 205.376 C 114.400 206.133,114.538 206.838,114.707 206.943 C 114.876 207.047,114.948 206.428,114.865 205.566 C 114.681 203.632,114.400 203.518,114.400 205.376 M146.556 206.971 C 146.435 207.285,146.404 207.960,146.486 208.471 C 146.595 209.154,146.688 209.004,146.837 207.900 C 147.047 206.347,146.936 205.981,146.556 206.971 M213.152 208.487 C 213.337 209.598,213.393 209.655,213.519 208.854 C 213.601 208.333,213.503 207.743,213.301 207.541 C 213.079 207.319,213.021 207.693,213.152 208.487 M243.599 209.300 C 243.010 210.104,242.913 210.384,243.345 210.033 C 244.001 209.500,244.993 208.000,244.689 208.000 C 244.613 208.000,244.122 208.585,243.599 209.300 M169.528 208.700 C 175.759 208.762,185.839 208.762,191.928 208.700 C 198.018 208.638,192.920 208.587,180.600 208.587 C 168.280 208.587,163.298 208.638,169.528 208.700 M241.322 211.829 L 240.200 212.858 241.500 211.954 C 242.215 211.457,242.800 210.993,242.800 210.925 C 242.800 210.609,242.358 210.880,241.322 211.829 M105.215 212.400 C 105.221 212.730,105.490 213.349,105.813 213.776 C 106.568 214.775,106.563 214.405,105.802 212.946 C 105.474 212.316,105.210 212.070,105.215 212.400 M215.232 213.638 C 215.214 213.989,215.605 214.619,216.100 215.038 C 216.992 215.794,216.994 215.793,216.352 215.000 C 215.996 214.560,215.605 213.930,215.484 213.600 C 215.297 213.091,215.258 213.096,215.232 213.638 M123.911 214.293 C 124.851 214.378,126.291 214.377,127.111 214.291 C 127.930 214.205,127.160 214.136,125.400 214.137 C 123.640 214.139,122.970 214.209,123.911 214.293 M233.111 214.293 C 234.051 214.378,235.491 214.377,236.311 214.291 C 237.130 214.205,236.360 214.136,234.600 214.137 C 232.840 214.139,232.170 214.209,233.111 214.293 M140.534 218.648 C 139.178 220.051,138.151 221.200,138.251 221.200 C 138.600 221.200,142.463 217.430,142.845 216.717 C 143.379 215.718,143.304 215.781,140.534 218.648 M219.000 218.800 C 220.306 220.120,221.465 221.200,221.575 221.200 C 221.685 221.200,220.706 220.120,219.400 218.800 C 218.094 217.480,216.935 216.400,216.825 216.400 C 216.715 216.400,217.694 217.480,219.000 218.800 M81.309 226.400 C 81.309 227.390,81.387 227.795,81.482 227.300 C 81.578 226.805,81.578 225.995,81.482 225.500 C 81.387 225.005,81.309 225.410,81.309 226.400 M160.190 255.898 C 161.505 255.979,162.717 256.260,162.884 256.523 C 163.089 256.845,163.190 256.772,163.194 256.300 C 163.199 255.694,162.836 255.610,160.500 255.676 L 157.800 255.751 160.190 255.898 M181.297 256.063 C 181.023 256.337,180.805 256.749,180.812 256.980 C 180.819 257.211,181.008 257.085,181.232 256.700 C 181.734 255.838,186.230 255.668,186.509 256.500 C 186.606 256.789,186.659 256.746,186.634 256.400 C 186.579 255.610,182.036 255.324,181.297 256.063 M79.467 257.467 C 79.320 257.613,79.203 257.928,79.206 258.167 C 79.210 258.431,79.334 258.408,79.524 258.110 C 79.746 257.760,81.895 257.585,87.018 257.500 L 94.200 257.380 86.967 257.290 C 82.988 257.241,79.613 257.320,79.467 257.467 M263.461 257.500 C 263.358 257.665,264.382 257.750,265.737 257.688 C 269.878 257.500,270.369 257.323,266.924 257.260 C 265.122 257.227,263.563 257.335,263.461 257.500 M283.570 258.300 L 282.600 259.400 283.605 258.519 C 284.406 257.818,285.218 257.610,287.605 257.499 L 290.600 257.359 287.570 257.279 C 284.719 257.205,284.482 257.265,283.570 258.300 M288.378 259.900 L 287.000 261.400 288.500 260.022 C 289.896 258.738,290.184 258.400,289.878 258.400 C 289.812 258.400,289.137 259.075,288.378 259.900 M98.400 258.925 C 98.400 258.994,98.985 259.579,99.700 260.225 L 101.000 261.400 99.825 260.100 C 98.730 258.888,98.400 258.616,98.400 258.925 M180.127 260.200 C 180.286 261.771,186.030 261.429,185.988 259.851 C 185.981 259.603,185.792 259.715,185.568 260.100 C 185.253 260.641,184.626 260.800,182.809 260.800 C 180.916 260.800,180.419 260.664,180.252 260.100 C 180.092 259.555,180.064 259.577,180.127 260.200 M281.375 260.900 L 280.200 262.200 281.500 261.025 C 282.215 260.379,282.800 259.794,282.800 259.725 C 282.800 259.416,282.470 259.688,281.375 260.900 M78.229 261.429 C 78.081 262.015,78.038 262.572,78.132 262.666 C 78.227 262.760,78.424 262.358,78.571 261.771 C 78.719 261.185,78.762 260.628,78.668 260.534 C 78.573 260.440,78.376 260.842,78.229 261.429 M84.261 262.300 C 84.158 262.465,85.182 262.550,86.537 262.489 C 90.948 262.289,91.470 262.129,87.924 262.064 C 86.012 262.029,84.363 262.135,84.261 262.300 M285.178 263.500 L 283.800 265.000 285.300 263.622 C 286.125 262.863,286.800 262.188,286.800 262.122 C 286.800 261.816,286.462 262.104,285.178 263.500 M206.509 266.800 C 206.509 267.790,206.587 268.195,206.682 267.700 C 206.778 267.205,206.778 266.395,206.682 265.900 C 206.587 265.405,206.509 265.810,206.509 266.800 M276.575 266.500 L 275.400 267.800 276.700 266.625 C 277.415 265.979,278.000 265.394,278.000 265.325 C 278.000 265.016,277.670 265.288,276.575 266.500 M119.978 267.100 L 118.600 268.600 120.100 267.222 C 121.496 265.938,121.784 265.600,121.478 265.600 C 121.412 265.600,120.737 266.275,119.978 267.100 M282.175 266.900 L 281.000 268.200 282.300 267.025 C 283.512 265.930,283.784 265.600,283.475 265.600 C 283.406 265.600,282.821 266.185,282.175 266.900 M300.975 267.300 L 299.800 268.600 301.100 267.425 C 301.815 266.779,302.400 266.194,302.400 266.125 C 302.400 265.816,302.070 266.088,300.975 267.300 M357.429 267.029 C 357.281 267.615,357.238 268.172,357.332 268.266 C 357.427 268.360,357.624 267.958,357.771 267.371 C 357.919 266.785,357.962 266.228,357.868 266.134 C 357.773 266.040,357.576 266.442,357.429 267.029 M124.487 269.100 C 123.868 269.705,123.730 269.910,124.181 269.555 C 124.631 269.200,125.360 268.710,125.800 268.467 C 126.240 268.223,126.378 268.019,126.106 268.012 C 125.835 268.005,125.106 268.495,124.487 269.100 M76.229 269.429 C 76.081 270.015,76.038 270.572,76.132 270.666 C 76.227 270.760,76.424 270.358,76.571 269.771 C 76.719 269.185,76.762 268.628,76.668 268.534 C 76.573 268.440,76.376 268.842,76.229 269.429 M279.178 270.300 L 277.800 271.800 279.300 270.422 C 280.125 269.663,280.800 268.988,280.800 268.922 C 280.800 268.616,280.462 268.904,279.178 270.300 M101.429 270.229 C 101.281 270.815,101.238 271.372,101.332 271.466 C 101.427 271.560,101.624 271.158,101.771 270.571 C 101.919 269.985,101.962 269.428,101.868 269.334 C 101.773 269.240,101.576 269.642,101.429 270.229 M131.000 270.738 L 131.000 272.200 127.033 272.315 C 124.143 272.399,122.967 272.291,122.703 271.915 C 122.424 271.520,122.377 271.540,122.502 272.000 C 122.712 272.775,130.163 273.095,131.041 272.366 C 131.628 271.879,131.815 269.780,131.300 269.461 C 131.135 269.359,131.000 269.933,131.000 270.738 M201.301 270.600 C 201.305 271.480,201.387 271.793,201.483 271.295 C 201.579 270.798,201.575 270.078,201.475 269.695 C 201.375 269.313,201.296 269.720,201.301 270.600 M337.246 269.667 C 337.221 270.034,337.096 270.664,336.970 271.067 C 336.752 271.762,336.763 271.763,337.197 271.087 C 337.448 270.696,337.573 270.066,337.473 269.687 C 337.311 269.068,337.288 269.066,337.246 269.667 M177.246 271.267 C 177.221 271.634,177.096 272.264,176.970 272.667 C 176.752 273.362,176.763 273.363,177.197 272.687 C 177.448 272.296,177.573 271.666,177.473 271.287 C 177.311 270.668,177.288 270.666,177.246 271.267 M136.493 272.800 C 136.493 273.570,136.575 273.885,136.676 273.500 C 136.776 273.115,136.776 272.485,136.676 272.100 C 136.575 271.715,136.493 272.030,136.493 272.800 M235.468 272.288 C 235.362 272.459,237.402 272.545,240.003 272.477 C 244.281 272.366,244.753 272.423,244.943 273.077 C 245.119 273.678,245.140 273.665,245.072 273.000 C 244.987 272.165,235.961 271.495,235.468 272.288 M276.236 273.631 C 275.666 274.308,275.211 275.163,275.225 275.531 C 275.242 275.962,275.392 275.845,275.649 275.200 C 275.869 274.650,276.429 273.795,276.894 273.300 C 277.359 272.805,277.634 272.400,277.505 272.400 C 277.376 272.400,276.805 272.954,276.236 273.631 M207.281 276.076 C 207.199 279.598,207.501 280.483,208.411 279.386 C 208.828 278.884,208.805 278.823,208.273 279.027 C 207.725 279.238,207.614 278.798,207.498 275.936 L 207.363 272.600 207.281 276.076 M355.429 275.029 C 355.281 275.615,355.238 276.172,355.332 276.266 C 355.427 276.360,355.624 275.958,355.771 275.371 C 355.919 274.785,355.962 274.228,355.868 274.134 C 355.773 274.040,355.576 274.442,355.429 275.029 M269.246 276.067 C 269.221 276.434,269.096 277.064,268.970 277.467 C 268.752 278.162,268.763 278.163,269.197 277.487 C 269.448 277.096,269.573 276.466,269.473 276.087 C 269.311 275.468,269.288 275.466,269.246 276.067 M121.461 276.300 C 121.358 276.465,123.463 276.553,126.137 276.496 C 134.966 276.306,135.900 276.155,128.724 276.077 C 124.832 276.035,121.563 276.135,121.461 276.300 M318.444 277.244 C 318.198 277.951,318.066 278.600,318.152 278.685 C 318.238 278.771,318.509 278.262,318.756 277.556 C 319.002 276.849,319.134 276.200,319.048 276.115 C 318.962 276.029,318.691 276.538,318.444 277.244 M74.229 277.429 C 74.081 278.015,74.038 278.572,74.132 278.666 C 74.227 278.760,74.424 278.358,74.571 277.771 C 74.719 277.185,74.762 276.628,74.668 276.534 C 74.573 276.440,74.376 276.842,74.229 277.429 M234.352 276.913 C 234.525 277.086,236.812 277.175,239.433 277.111 L 244.200 276.996 239.119 276.798 C 236.324 276.689,234.179 276.741,234.352 276.913 M335.246 277.667 C 335.221 278.034,335.096 278.664,334.970 279.067 C 334.752 279.762,334.763 279.763,335.197 279.087 C 335.448 278.696,335.573 278.066,335.473 277.687 C 335.311 277.068,335.288 277.066,335.246 277.667 M296.509 279.200 C 296.509 280.190,296.587 280.595,296.682 280.100 C 296.778 279.605,296.778 278.795,296.682 278.300 C 296.587 277.805,296.509 278.210,296.509 279.200 M115.301 279.400 C 115.305 280.280,115.387 280.593,115.483 280.095 C 115.579 279.598,115.575 278.878,115.475 278.495 C 115.375 278.113,115.296 278.520,115.301 279.400 M129.016 279.900 L 127.535 281.800 129.067 280.120 C 130.494 278.556,130.767 278.430,133.000 278.296 L 135.400 278.151 132.948 278.076 L 130.496 278.000 129.016 279.900 M175.246 279.267 C 175.221 279.634,175.096 280.264,174.970 280.667 C 174.752 281.362,174.763 281.363,175.197 280.687 C 175.448 280.296,175.573 279.666,175.473 279.287 C 175.311 278.668,175.288 278.666,175.246 279.267 M310.706 280.211 C 309.884 280.975,309.354 281.600,309.527 281.600 C 309.701 281.600,310.454 280.970,311.200 280.200 C 312.941 278.403,312.643 278.410,310.706 280.211 M268.229 280.229 C 268.081 280.815,268.038 281.372,268.132 281.466 C 268.227 281.560,268.424 281.158,268.571 280.571 C 268.719 279.985,268.762 279.428,268.668 279.334 C 268.573 279.240,268.376 279.642,268.229 280.229 M341.362 280.700 C 341.781 281.195,342.501 281.579,342.962 281.554 C 343.768 281.509,343.769 281.500,343.000 281.312 C 342.560 281.205,341.840 280.821,341.400 280.459 C 340.607 279.805,340.606 279.807,341.362 280.700 M81.500 281.089 C 82.215 281.178,83.385 281.178,84.100 281.089 C 84.815 281.001,84.230 280.928,82.800 280.928 C 81.370 280.928,80.785 281.001,81.500 281.089 M353.429 283.029 C 353.281 283.615,353.238 284.172,353.332 284.266 C 353.427 284.360,353.624 283.958,353.771 283.371 C 353.919 282.785,353.962 282.228,353.868 282.134 C 353.773 282.040,353.576 282.442,353.429 283.029 M131.000 284.250 C 130.281 284.862,130.134 285.105,130.633 284.857 C 131.366 284.493,132.741 283.176,132.349 283.214 C 132.267 283.222,131.660 283.688,131.000 284.250 M267.100 284.610 C 266.994 285.165,267.026 285.692,267.171 285.782 C 267.316 285.871,267.474 285.417,267.523 284.772 C 267.633 283.335,267.364 283.231,267.100 284.610 " stroke="none" fill="#747474" fill-rule="evenodd"/></g></svg>
